<?xml version="1.0" standalone="no"?>
<!DOCTYPE svg PUBLIC "-//W3C//DTD SVG 20010904//EN"
 "http://www.w3.org/TR/2001/REC-SVG-20010904/DTD/svg10.dtd">
<svg version="1.0" xmlns="http://www.w3.org/2000/svg"
 width="555.000000pt" height="470.000000pt" viewBox="0 0 555.000000 470.000000"
 preserveAspectRatio="xMidYMid meet">

<g transform="translate(0.000000,470.000000) scale(0.100000,-0.100000)"
fill="#000000" stroke="none">
<path d="M1904 3948 c-61 -66 -61 -57 6 -164 61 -96 62 -99 46 -124 -9 -14
-29 -49 -44 -78 l-27 -54 -116 7 -116 7 -15 -38 c-18 -44 -46 -155 -50 -197
-3 -26 3 -32 97 -80 l100 -52 2 -90 2 -90 -105 -53 c-57 -30 -104 -57 -104
-61 0 -14 48 -195 59 -224 l11 -29 116 3 115 4 45 -78 45 -77 -61 -95 c-49
-74 -59 -98 -52 -112 14 -26 168 -173 180 -173 6 0 53 27 104 60 l93 59 30
-20 c16 -11 51 -31 78 -45 l48 -25 -7 -117 -7 -117 69 -22 c112 -35 181 -48
196 -35 7 6 33 51 58 101 l44 91 93 0 93 0 50 -100 c35 -70 55 -100 68 -100
23 1 93 17 175 41 l67 20 0 118 0 118 75 46 75 46 97 -64 97 -64 48 41 c26 22
48 43 48 47 0 5 -80 90 -179 191 l-179 182 -67 -51 c-209 -160 -455 -204 -702
-126 -218 69 -408 259 -479 480 -32 98 -43 258 -25 361 22 125 97 279 179 367
l26 28 -185 185 -185 185 -30 -33z"/>
<path d="M2690 3815 c-79 -16 -154 -44 -216 -80 l-47 -27 79 -79 79 -79 65 27
c58 24 77 27 185 27 103 0 129 -3 180 -23 79 -32 162 -89 215 -148 47 -53 104
-164 119 -231 8 -40 7 -43 -19 -62 -16 -11 -41 -45 -56 -76 -23 -47 -26 -63
-21 -111 11 -102 87 -177 195 -190 57 -6 120 17 166 63 77 78 76 216 -4 299
-21 22 -31 47 -40 95 -16 88 -61 199 -115 280 -164 247 -472 374 -765 315z
m876 -812 c-3 -8 -6 -33 -6 -54 0 -39 -2 -41 -54 -65 l-54 -25 -46 33 c-48 33
-51 42 -39 112 5 35 11 41 57 61 l50 22 49 -35 c31 -22 46 -40 43 -49z"/>
<path d="M2049 1446 c-86 -30 -137 -80 -165 -158 -46 -130 26 -280 156 -323
75 -25 183 -17 242 18 74 43 77 52 32 92 -21 19 -42 34 -46 35 -4 0 -24 -11
-44 -25 -122 -83 -263 54 -198 191 18 38 76 74 118 74 33 0 76 -17 101 -40 20
-18 21 -17 65 21 l45 40 -35 30 c-63 54 -189 75 -271 45z"/>
<path d="M4730 1445 c-103 -33 -171 -127 -172 -237 0 -104 47 -184 137 -230
56 -29 167 -36 231 -14 47 16 104 56 104 74 0 4 -16 23 -35 42 -33 32 -37 33
-58 20 -74 -46 -122 -52 -174 -20 -48 29 -66 63 -66 126 0 64 20 99 74 127 45
24 108 17 152 -16 l34 -26 38 39 c38 39 38 40 19 61 -53 59 -189 85 -284 54z"/>
<path d="M650 1205 l0 -245 65 0 64 0 3 126 3 126 60 -101 c58 -97 61 -100 95
-101 34 0 37 4 94 101 33 55 61 112 64 125 2 13 9 24 14 24 6 0 7 -7 2 -17 -5
-10 -10 -78 -12 -150 l-3 -133 65 0 66 0 0 245 0 245 -58 0 -57 0 -84 -140
c-76 -128 -83 -143 -72 -166 15 -34 15 -34 -19 -34 -30 0 -30 0 -16 28 14 28
13 32 -71 170 l-86 142 -59 0 -58 0 0 -245z m130 34 c0 -11 -4 -17 -10 -14 -5
3 -10 13 -10 21 0 8 5 14 10 14 6 0 10 -9 10 -21z"/>
<path d="M1370 1205 l0 -245 200 0 200 0 0 50 0 50 -129 0 -128 0 -7 73 c-4
40 -3 106 0 145 l7 72 123 0 124 0 0 50 0 50 -195 0 -195 0 0 -245z"/>
<path d="M2460 1205 l0 -245 70 0 70 0 0 95 0 95 100 0 100 0 0 -95 0 -95 65
0 65 0 0 245 0 245 -65 0 -64 0 -3 -92 -3 -93 -95 0 -95 0 -3 93 -3 92 -69 0
-70 0 0 -245z"/>
<path d="M3213 1393 c-14 -32 -63 -142 -108 -245 l-83 -188 69 0 69 0 15 36
c20 49 19 54 -10 54 -29 0 -30 2 -9 63 14 42 19 46 51 49 34 3 37 6 62 70 14
36 30 68 35 70 4 1 21 -28 36 -67 23 -59 32 -71 53 -73 20 -3 29 -13 41 -49
20 -57 20 -63 1 -63 -19 0 -19 -8 0 -54 l15 -36 71 0 c38 0 68 3 66 8 -2 4
-50 114 -108 244 l-104 238 -68 0 -68 0 -26 -57z m117 -12 c0 -5 -5 -22 -10
-37 -12 -31 -25 -24 -35 19 -6 24 -5 27 19 27 14 0 26 -4 26 -9z"/>
<path d="M3680 1205 l0 -245 70 0 69 0 3 128 3 127 105 -127 105 -128 57 0 58
0 0 245 0 245 -65 0 -64 0 -3 -132 -3 -133 -110 133 -109 132 -58 0 -58 0 0
-245z m140 50 c0 -19 -2 -35 -4 -35 -2 0 -16 16 -30 35 l-27 35 30 0 c29 0 31
-3 31 -35z m228 -105 l23 -30 -31 0 c-27 0 -30 3 -30 30 0 17 4 30 8 30 5 0
18 -13 30 -30z"/>
<path d="M4300 1205 l0 -245 65 0 65 0 0 245 0 245 -65 0 -65 0 0 -245z"/>
<path d="M1520 1210 l0 -50 105 0 105 0 0 50 0 50 -105 0 -105 0 0 -50z"/>
<path d="M3226 1110 c-9 -22 -16 -45 -16 -50 0 -6 40 -10 95 -10 105 0 106 1
80 64 l-15 36 -64 0 -64 0 -16 -40z"/>
<path d="M650 645 c0 -11 11 -15 40 -15 l40 0 0 -100 c0 -82 3 -100 15 -100
12 0 15 18 15 100 l0 100 40 0 c29 0 40 4 40 15 0 12 -17 15 -95 15 -78 0 -95
-3 -95 -15z"/>
<path d="M1096 633 c-8 -16 -32 -67 -54 -115 -36 -77 -38 -88 -23 -88 11 0 24
12 31 30 12 29 15 30 71 30 55 0 59 -2 74 -30 9 -16 22 -30 30 -30 12 0 9 12
-11 58 -14 31 -37 83 -51 115 -28 63 -45 71 -67 30z m70 -120 c-2 -2 -24 -3
-49 -1 l-45 3 25 55 24 54 25 -53 c13 -30 23 -56 20 -58z"/>
<path d="M1493 645 c-17 -7 -39 -27 -47 -44 -44 -84 13 -171 111 -171 57 0 83
23 83 71 0 53 -27 55 -32 2 -3 -35 -6 -38 -37 -41 -52 -5 -79 6 -96 38 -22 43
-19 68 14 101 32 31 75 38 113 18 13 -7 23 -8 30 -1 7 7 0 16 -20 26 -38 19
-76 20 -119 1z"/>
<path d="M1880 545 l0 -115 75 0 c60 0 75 3 75 15 0 12 -13 15 -60 15 l-60 0
0 100 c0 82 -3 100 -15 100 -12 0 -15 -19 -15 -115z"/>
<path d="M2247 654 c-4 -4 -7 -56 -7 -116 0 -102 1 -108 20 -108 20 0 21 5 18
112 -3 103 -11 132 -31 112z"/>
<path d="M2520 545 c0 -96 3 -115 15 -115 12 0 15 16 15 80 0 44 3 80 8 79 4
0 35 -36 70 -80 34 -43 69 -79 77 -79 12 0 15 21 15 115 0 94 -3 115 -15 115
-11 0 -15 -19 -17 -87 l-3 -88 -69 88 c-38 48 -75 87 -83 87 -10 0 -13 -26
-13 -115z"/>
<path d="M2960 545 l0 -115 80 0 c64 0 80 3 80 15 0 12 -14 15 -65 15 l-65 0
0 35 0 35 60 0 c47 0 60 3 60 15 0 12 -13 15 -60 15 l-60 0 0 35 0 35 65 0
c51 0 65 3 65 15 0 12 -16 15 -80 15 l-80 0 0 -115z"/>
<path d="M3620 545 c0 -96 3 -115 15 -115 11 0 15 12 15 50 l0 50 65 0 65 0 0
-50 c0 -38 4 -50 15 -50 12 0 15 19 15 115 0 96 -3 115 -15 115 -11 0 -15 -12
-15 -50 l0 -50 -65 0 -65 0 0 50 c0 38 -4 50 -15 50 -12 0 -15 -19 -15 -115z"/>
<path d="M4060 545 l0 -115 80 0 c64 0 80 3 80 15 0 12 -14 15 -65 15 l-65 0
0 35 0 35 55 0 c42 0 55 3 55 15 0 12 -13 15 -55 15 l-55 0 0 35 0 35 65 0
c51 0 65 3 65 15 0 12 -16 15 -80 15 l-80 0 0 -115z"/>
<path d="M4450 546 c0 -96 3 -116 15 -116 10 0 15 11 15 35 0 34 1 35 39 35
34 0 42 -5 61 -35 13 -21 30 -35 41 -35 19 0 18 3 -7 35 l-27 36 22 22 c27 30
28 87 1 112 -13 12 -42 19 -90 23 l-70 5 0 -117z m131 74 c22 -12 26 -59 7
-78 -7 -7 -34 -12 -60 -12 l-48 0 0 50 0 50 41 0 c22 0 49 -5 60 -10z"/>
<path d="M4870 545 l0 -115 80 0 c64 0 80 3 80 15 0 12 -14 15 -65 15 l-65 0
0 35 0 35 55 0 c42 0 55 3 55 15 0 12 -13 15 -55 15 l-55 0 0 35 0 35 60 0
c47 0 60 3 60 15 0 12 -15 15 -75 15 l-75 0 0 -115z"/>
</g>
</svg>
